<?xml version="1.0" encoding="utf-8"?><svg xmlns="http://www.w3.org/2000/svg" xmlns:xlink="http://www.w3.org/1999/xlink"><symbol viewBox="0 0 22.02 31.99" id="arrow-down" xmlns="http://www.w3.org/2000/svg"><g data-name="Слой 2"><g data-name="Слой 1"><path data-name="Arrow Forward" d="M11 32a1.05 1.05 0 00.71-.29l10-9.91a1 1 0 000-1.42 1 1 0 00-1.43 0L12 28.58V1a1 1 0 00-2 0v27.58L1.72 20.4a1 1 0 00-1.43 0 1 1 0 000 1.41l10 9.88A1 1 0 0011 32z"/></g></g></symbol><symbol viewBox="0 0 32 32" id="arrow-right" xmlns="http://www.w3.org/2000/svg"><path clip-rule="evenodd" d="M32 16.009c0-.267-.11-.522-.293-.714l-9.899-9.999a.993.993 0 00-1.414 0 1.016 1.016 0 000 1.428l8.193 8.275H1c-.552 0-1 .452-1 1.01s.448 1.01 1 1.01h27.586l-8.192 8.275a1.017 1.017 0 000 1.428.994.994 0 001.414 0l9.899-9.999c.187-.189.29-.449.293-.714z" fill-rule="evenodd"/></symbol><symbol viewBox="0 0 348.1 348.1" id="call" xmlns="http://www.w3.org/2000/svg"><path d="M340.3 275.1l-53.8-53.8c-10.7-10.7-28.4-10.3-39.5.7l-27.1 27.1c-1.7-.9-3.5-1.9-5.3-3-17.1-9.5-40.5-22.5-65.1-47.1-24.7-24.7-37.7-48.1-47.2-65.3-1-1.8-2-3.6-2.9-5.2l18.2-18.1 8.9-8.9c11.1-11.1 11.4-28.8.7-39.5L73.4 8.2C62.7-2.5 45-2.2 33.9 8.9L18.7 24.2l.4.4c-5.1 6.5-9.3 14-12.5 22-2.9 7.7-4.7 15-5.6 22.3-7 58.9 19.9 112.7 92.9 185.6 100.9 100.9 182.2 93.2 185.7 92.9 7.6-.9 15-2.7 22.4-5.6 8-3.1 15.5-7.4 21.9-12.4l.3.3 15.3-15c11.1-11.2 11.5-28.9.8-39.6z"/></symbol><symbol viewBox="0 0 344.96 344.96" id="check" xmlns="http://www.w3.org/2000/svg"><g data-name="Слой 2"><path d="M321.85 86.24l-40-23.11-23.1-40H212.5L172.48 0l-40 23.11H86.24l-23.11 40-40 23.1v46.21L0 172.48l23.11 40v46.21l40 23.11 23.11 40h46.21l40 23.1 40-23.11h46.21l23.11-40 40-23.11V212.5l23.11-40-23.11-40V86.24zM156.91 243.07a16.79 16.79 0 01-23.34 0l-50.45-50.44a16.19 16.19 0 010-22.89l13.35-13.35a16.19 16.19 0 0122.89 0l25.87 25.87 80.34-80.35a16.19 16.19 0 0122.89 0l13.35 13.35a16.19 16.19 0 010 22.89z" data-name="Capa 1"/></g></symbol><symbol viewBox="0 0 8 14" id="chevron-left" xmlns="http://www.w3.org/2000/svg"><defs><path id="ea" d="M414.013 7959.2l.196-.201-.196-.201 6.636-6.788 1.342 1.371-5.494 5.618 5.494 5.617-1.342 1.372z"/></defs><use xlink:href="#ea" transform="translate(-414 -7952)"/></symbol><symbol viewBox="0 0 8 14" id="chevron-right" xmlns="http://www.w3.org/2000/svg"><defs><path id="fa" d="M1469.35 450.985l-1.34-1.37 5.493-5.617-5.494-5.618 1.342-1.372 6.636 6.788-.196.201.196.201z"/></defs><use xlink:href="#fa" transform="translate(-1468 -437)"/></symbol><symbol viewBox="0 0 256 162.02" id="eye" xmlns="http://www.w3.org/2000/svg"><g data-name="Слой 2"><g data-name="Слой 1"><path d="M0 84v-5c4.74-7 9.05-14.4 14.29-21C40.75 24.47 74.85 4.09 117.73.46c35.74-3 67.14 8.85 95.08 30.75C230.19 44.83 243.83 61.74 256 80v4c-13.92 21-30.6 39.46-51.78 53.4-37.58 24.73-77.73 32.19-120.67 16.21C50 141.11 24 119 4.12 89.38 2.86 87.5 1.38 85.77 0 84zm70.46-2a89.39 89.39 0 001.07 9c8.74 41.58 61.53 58.48 94.87 30.4 25-21.06 25.8-57.73 1.7-79.44-20.3-18.31-51.49-20.41-73.92-4.76C79 47.81 70.91 62.42 70.46 81.93z"/><path d="M128.3 54.1c15.62 0 28.54 12.28 28.44 26.93s-13 26.86-28.57 26.83c-16 0-28.83-12.26-28.64-27.21.18-14.75 13.02-26.6 28.77-26.55z"/></g></g></symbol><symbol class="hsvg-inline--fa hfa-facebook-f hfa-w-9" viewBox="0 0 264 512" id="fb" xmlns="http://www.w3.org/2000/svg"><path d="M215.8 85H264V3.6C255.7 2.5 227.1 0 193.8 0 124.3 0 76.7 42.4 76.7 120.3V192H0v91h76.7v229h94V283h73.6l11.7-91h-85.3v-62.7c0-26.3 7.3-44.3 45.1-44.3z"/></symbol><symbol viewBox="0 0 409.6 409.6" id="inst" xmlns="http://www.w3.org/2000/svg"><g data-name="Слой 2"><g data-name="Слой 1"><path d="M298.73 0H110.87A111 111 0 000 110.88v187.85A111 111 0 00110.87 409.6h187.86A111 111 0 00409.6 298.73V110.88A111 111 0 00298.73 0zm86.86 298.73a87 87 0 01-86.86 86.86H110.87A87 87 0 0124 298.73V110.88A87 87 0 01110.87 24h187.86a87 87 0 0186.86 86.87z"/><path d="M204.8 92.8a112 112 0 10112 112 112.12 112.12 0 00-112-112zm0 200a88 88 0 1188-88 88.08 88.08 0 01-88 88zM319.48 53a33.1 33.1 0 1033.09 33.09A33.14 33.14 0 00319.48 53zm0 42.17a9.08 9.08 0 119.08-9.08 9.09 9.09 0 01-9.08 9.08z"/></g></g></symbol><symbol viewBox="0 0 371.82 409.42" id="like" xmlns="http://www.w3.org/2000/svg"><g data-name="Слой 2"><path d="M115.08 0h28c.4.27.77.72 1.19.77 24.48 3.2 48.48 25.58 47.81 58.8-.42 21 0 42-.18 63-.05 4.34 1 5.57 5.48 5.55 43.49-.18 87-.13 130.47-.1 24.83 0 43.26 18.45 43.2 43.31 0 8.64 1.82 7.8-8 7.8-42.49 0-85 .08-127.47-.12-4.62 0-5.73 1.48-5.42 5.71.34 4.47.1 9 .08 13.49 0 6.68 0 6.65 6.78 6.65 42.82 0 85.65.08 128.47-.11 4.71 0 5.78 1.42 5.68 5.87-.27 13.66-.2 27.32 0 41 0 3.4-.78 4.62-4.41 4.57-13.66-.21-27.32-.1-41-.1-30.16 0-60.32.06-90.48-.09-3.83 0-5.39.89-5.11 5a117.59 117.59 0 010 15.48c-.27 4.08.89 5.47 5.18 5.43 21.83-.21 43.66-.11 65.48-.11h65.49c2.55 0 4.86-.35 4.81 3.66-.19 14.66-.12 29.32 0 44 0 2.63-.94 3.5-3.5 3.45-5.83-.13-11.67 0-17.5 0-37.82 0-75.65.08-113.47-.1-4.79 0-7.12.84-6.49 6.21.48 4.11.08 8.32.1 12.49 0 6.8.06 6.81 6.67 6.81h121c14.67 0 15.34.83 12.7 15.64-3.86 21.67-20.9 35.53-44 35.54q-140.71.06-281.43 0C17.46 409.39 0 391.65 0 364c.06-39 0-78 0-117 0-22.65.15-45.31.24-68a143.29 143.29 0 0017.43-1c53-6.27 96.56-54.27 97.33-107.7.36-23.3.08-46.82.08-70.3z" data-name="Слой 1"/></g></symbol><symbol viewBox="0 0 24 24" id="map" xmlns="http://www.w3.org/2000/svg"><path d="M1 8.5l11 3.46L15.5 23 23 1 1 8.5z" fill-rule="evenodd"/></symbol><symbol viewBox="0 0 370.85 512" id="mark" xmlns="http://www.w3.org/2000/svg"><g data-name="Слой 2"><path d="M185.43 0C83.18 0 0 83.18 0 185.43c0 126.88 165.94 313.16 173 321a16.71 16.71 0 0024.85 0c7.07-7.87 173-194.15 173-321C370.85 83.18 287.67 0 185.43 0zm0 278.72a93.3 93.3 0 1193.29-93.29 93.4 93.4 0 01-93.29 93.29z" data-name="Layer 1"/></g></symbol><symbol class="msvg-inline--fa mfa-odnoklassniki mfa-w-10" viewBox="0 0 320 512" id="odnoklassniki" xmlns="http://www.w3.org/2000/svg"><path d="M275.1 334c-27.4 17.4-65.1 24.3-90 26.9l20.9 20.6 76.3 76.3c27.9 28.6-17.5 73.3-45.7 45.7-19.1-19.4-47.1-47.4-76.3-76.6L84 503.4c-28.2 27.5-73.6-17.6-45.4-45.7 19.4-19.4 47.1-47.4 76.3-76.3l20.6-20.6c-24.6-2.6-62.9-9.1-90.6-26.9-32.6-21-46.9-33.3-34.3-59 7.4-14.6 27.7-26.9 54.6-5.7 0 0 36.3 28.9 94.9 28.9s94.9-28.9 94.9-28.9c26.9-21.1 47.1-8.9 54.6 5.7 12.4 25.7-1.9 38-34.5 59.1zM30.3 129.7C30.3 58 88.6 0 160 0s129.7 58 129.7 129.7c0 71.4-58.3 129.4-129.7 129.4s-129.7-58-129.7-129.4zm66 0c0 35.1 28.6 63.7 63.7 63.7s63.7-28.6 63.7-63.7c0-35.4-28.6-64-63.7-64s-63.7 28.6-63.7 64z"/></symbol><symbol viewBox="0 0 512 512" id="play" xmlns="http://www.w3.org/2000/svg"><path d="M405.2 232.9L126.8 67.2c-3.4-2-6.9-3.2-10.9-3.2-10.9 0-19.8 9-19.8 20H96v344h.1c0 11 8.9 20 19.8 20 4.1 0 7.5-1.4 11.2-3.4l278.1-165.5c6.6-5.5 10.8-13.8 10.8-23.1s-4.2-17.5-10.8-23.1z"/></symbol><symbol viewBox="0 0 57 57" id="search" xmlns="http://www.w3.org/2000/svg"><path d="M55.1 51.9L41.6 37.8C45.1 33.6 47 28.4 47 23 47 10.3 36.7 0 24 0S1 10.3 1 23s10.3 23 23 23c4.8 0 9.3-1.4 13.2-4.2L50.8 56c.6.6 1.3.9 2.2.9.8 0 1.5-.3 2.1-.8 1.2-1.1 1.2-3 0-4.2zM24 6c9.4 0 17 7.6 17 17s-7.6 17-17 17S7 32.4 7 23 14.6 6 24 6z"/></symbol><symbol viewBox="0 0 200 180" id="telegram" xmlns="http://www.w3.org/2000/svg"><g data-name="Слой 2"><path d="M70 180h-4c-1.72-2.13-2.35-4.69-3-7.28-4.35-18.43-8.81-36.84-13-55.3a9.91 9.91 0 00-5.39-7.09C29.68 102 14.86 93.47 0 85v-4c2.05-1.06 4-2.27 6.17-3.15q90.69-37.41 181.4-74.79c1.9-.79 4.24-1 5.43-3.06 7 0 7 0 7 7-1.52 1.53-1.46 3.64-1.92 5.52q-18.69 76.53-37.3 153.08c-1.76 7.23-3.34 7.9-10 4.2q-22-12.27-43.95-24.64c-2.41-1.37-4.11-2-6.35.6C90.46 157.28 80.19 168.6 70 180zm85.17-139.83l.43-1-1.18.27-1 .8a12.79 12.79 0 00-1.31.72q-46.28 33.62-92.61 67.22c-2.5 1.81-2.72 3.63-2 6.39 3 12.28 5.85 24.61 8.86 36.9.34 1.38 0 3.32 2.24 4.32 2.22-9.51 4.45-18.71 6.48-28a18 18 0 014.84-9q21.12-21.64 42-43.55c10.82-11.31 21.56-22.7 32.34-34zm33.15-21.71c-1.67 1.39-2.48 1.94-3.14 2.63Q137 71.15 88.79 121.17c-2.61 2.71-1.84 3.74 1 5.31 19.36 10.73 38.66 21.6 58 32.41 5.61 3.14 5.61 3.13 7.15-3.2l25.11-103.32c2.66-10.93 5.33-21.86 8.27-33.91zm-26.25 3.87L13.26 83.58C25.08 90.2 36 96.17 46.72 102.44c3.07 1.79 5.15 1.53 8-.54Q106.27 64.18 158 26.67c1.3-.96 2.94-1.6 4.07-4.34zM76.1 159l1.06.78 11.19-12.45c8.06-9 8-9-2.89-14.12-2.14-1-3.12-1-3.7 1.63C80 142.87 78 150.9 76.1 159z" data-name="Слой 1"/></g></symbol><symbol class="qsvg-inline--fa qfa-twitter qfa-w-16" viewBox="0 0 512 512" id="twitter" xmlns="http://www.w3.org/2000/svg"><path d="M459.37 151.716c.325 4.548.325 9.097.325 13.645 0 138.72-105.583 298.558-298.558 298.558-59.452 0-114.68-17.219-161.137-47.106 8.447.974 16.568 1.299 25.34 1.299 49.055 0 94.213-16.568 130.274-44.832-46.132-.975-84.792-31.188-98.112-72.772 6.498.974 12.995 1.624 19.818 1.624 9.421 0 18.843-1.3 27.614-3.573-48.081-9.747-84.143-51.98-84.143-102.985v-1.299c13.969 7.797 30.214 12.67 47.431 13.319-28.264-18.843-46.781-51.005-46.781-87.391 0-19.492 5.197-37.36 14.294-52.954 51.655 63.675 129.3 105.258 216.365 109.807-1.624-7.797-2.599-15.918-2.599-24.04 0-57.828 46.782-104.934 104.934-104.934 30.213 0 57.502 12.67 76.67 33.137 23.715-4.548 46.456-13.32 66.599-25.34-7.798 24.366-24.366 44.833-46.132 57.827 21.117-2.273 41.584-8.122 60.426-16.243-14.292 20.791-32.161 39.308-52.628 54.253z"/></symbol><symbol viewBox="0 0 468 512" id="viber" xmlns="http://www.w3.org/2000/svg"><defs><style>.rcls-1{fill:#e2b544}</style></defs><g id="rСлой_2" data-name="Слой 2"><g id="rСлой_1-2" data-name="Слой 1"><path class="rcls-1" d="M468 168v122c-1.83 3.64-1.55 7.68-2.14 11.54-13.4 88-89.95 155.13-179 156.48-30.47.46-61 .19-91.45.07a13.29 13.29 0 00-9.74 3.83c-18.48 16.79-37.1 33.41-55.67 50.08h-7c-4.88-3.52-6.26-8.24-6.12-14.21.34-16 0-32 .19-48 0-3.26-.85-4.87-4-6.29Q24.71 403.93 3.57 309.35c-1.37-6.1-1-12.5-3.57-18.35V169c2.09-5.13 1.89-10.68 2.81-16C15.32 80.63 71.63 21.24 143.25 4.79 151.46 2.9 160 2.6 168 0h131c5.12 2.08 10.66 1.9 16 2.82C391 15.93 452 77 465.19 153.07c.86 4.98.54 10.21 2.81 14.93zM136.56 480c2.63-2.27 4-3.42 5.35-4.63 11.73-10.62 23.54-21.16 35.13-31.94a16.37 16.37 0 0112.11-4.64c30.32.14 60.65.1 91 .06a178.88 178.88 0 0037.7-3.85c74.25-16.07 128.48-81 130.32-156.84.77-31.64.28-63.31.2-95-.06-23.66-4.82-46.47-15.4-67.61-29.72-59.37-77.72-92.36-144.28-95.5-35.91-1.69-72-.48-108-.29A146.14 146.14 0 00115.58 35C56.39 64.63 23.69 112.46 20 178.78c-1.45 26.09-.42 52.31-.4 78.47 0 10.32-.53 20.76.71 31 8 65.3 42 111.63 102.33 138.16 13 5.72 14.17 4.82 14 21.23-.19 10.24-.08 20.52-.08 32.36z"/><path class="rcls-1" d="M91.86 161.85c-.17-14.51 5.07-26.67 16-36.29Q122 113 136.48 100.64c5.37-4.58 10.72-4.19 15.32 1.08 15.35 17.56 30.75 35.09 45.89 52.85 11.16 13.09 9.67 30.56-3.17 42-6.71 6-6.6 5.93-3.29 14.35 12 30.48 33.76 50.06 65.08 59.32 2.59.77 3.78.32 5.27-1.81 11.43-16.26 27.09-19.26 43.71-8.48q27.71 17.92 55.31 35.92c7.56 4.93 8.56 9.57 3.7 17.1-6.42 9.94-12.81 19.89-19.33 29.76-15.17 23-42.66 29.28-66.66 16-31.84-17.58-63.05-36.09-91.44-58.94-36.33-29.24-64.06-65.79-87.54-105.63-5.68-9.66-7.39-20.98-7.47-32.31zM303.28 346c9.79.08 18.43-4 24-12.05 5.22-7.52 10-15.35 15.08-23 1.28-1.92 1.27-2.95-.83-4.3-16.39-10.53-32.66-21.25-49.07-31.74-5.33-3.42-10.18-2.21-13.87 3-2 2.85-3.81 5.86-5.74 8.78-3.77 5.66-7.25 7-13.57 5-3.65-1.15-7.23-2.53-10.89-3.65-43-13.19-68.12-43.34-80.75-85.32-1.36-4.51-.43-8.21 3-11.29 3.6-3.22 7.34-6.28 10.9-9.54 5.07-4.65 5.54-9.77 1.1-14.93-12.38-14.4-24.93-28.65-37.31-43-1.92-2.24-3.19-2.63-5.54-.48-6.27 5.73-12.77 11.21-19.2 16.76a25.89 25.89 0 00-9.31 19.22c-.34 9.3 1.11 18.63 5.83 26.53 20.58 34.49 44.41 66.54 75.08 92.83 29.86 25.61 63.59 45.49 98.09 64.09a26.26 26.26 0 0013 3.09zM249.62 73.71c1 .27 2.83.65 4.56 1.22q98.47 32.63 130.27 131.38c2.28 7.06-.16 12.34-6.08 14.13-5.58 1.68-10.32-1.49-12.48-8.34-.15-.47-.32-.94-.47-1.42-13.36-42.6-39.17-75.54-77-99.14a166.58 166.58 0 00-41.38-18.39c-4.33-1.28-7.53-3.52-8.33-8.23-1.04-6.29 3.75-11.58 10.91-11.21z"/><path class="rcls-1" d="M340.09 206c0 5.52-2.8 9.2-7.36 10.29s-8.18-.6-10.64-4.53a19 19 0 01-1.63-4.16c-11.45-34.45-34.33-57.49-68.84-68.86-4-1.32-7.42-3.11-8.54-7.51-2-7.79 4.84-13.89 13-11.54a119.68 119.68 0 0148.62 27.6A121.39 121.39 0 01339.11 202c.48 1.54.79 3.17.98 4z"/><path class="rcls-1" d="M300.11 204.21c0 5.3-3.07 9.13-7.77 10.06a9.42 9.42 0 01-11-6.37 54.78 54.78 0 00-6.1-13.06 44.19 44.19 0 00-24.08-17.64c-3.83-1.19-6.31-3.68-7-7.63a9.2 9.2 0 013.42-9.35 8.9 8.9 0 018.44-1.89c22.15 6.81 36.74 21.32 43.8 43.38a13.47 13.47 0 01.29 2.5z"/></g></g></symbol><symbol class="ssvg-inline--fa sfa-vk sfa-w-18" viewBox="0 0 576 512" id="vk" xmlns="http://www.w3.org/2000/svg"><path d="M545 117.7c3.7-12.5 0-21.7-17.8-21.7h-58.9c-15 0-21.9 7.9-25.6 16.7 0 0-30 73.1-72.4 120.5-13.7 13.7-20 18.1-27.5 18.1-3.7 0-9.4-4.4-9.4-16.9V117.7c0-15-4.2-21.7-16.6-21.7h-92.6c-9.4 0-15 7-15 13.5 0 14.2 21.2 17.5 23.4 57.5v86.8c0 19-3.4 22.5-10.9 22.5-20 0-68.6-73.4-97.4-157.4-5.8-16.3-11.5-22.9-26.6-22.9H38.8c-16.8 0-20.2 7.9-20.2 16.7 0 15.6 20 93.1 93.1 195.5C160.4 378.1 229 416 291.4 416c37.5 0 42.1-8.4 42.1-22.9 0-66.8-3.4-73.1 15.4-73.1 8.7 0 23.7 4.4 58.7 38.1 40 40 46.6 57.9 69 57.9h58.9c16.8 0 25.3-8.4 20.4-25-11.2-34.9-86.9-106.7-90.3-111.5-8.7-11.2-6.2-16.2 0-26.2.1-.1 72-101.3 79.4-135.6z"/></symbol><symbol viewBox="0 0 512 512" id="wallet" xmlns="http://www.w3.org/2000/svg"><path d="M492 133.1H78.2C57.1 133.1 40 116 40 94.9s17.1-38.2 38.2-38.2H492c11 0 20-8.9 20-20s-8.9-20-20-20H78.2C35 16.6 0 51.7 0 94.9v299.5c.1 55.8 45.2 100.9 101 101h310c55.8-.1 100.9-45.2 101-101V153c0-11-8.9-19.9-20-19.9zm-81 322.3H101.2C67.4 455.4 40 428 40 394.2V162.9c11.7 6.6 24.8 10 38.2 10H472v221.8c-.2 33.7-27.5 60.7-61 60.7z"/><path d="M375.7 359.1c-11 0-20-8.9-20-20v-53.9c0-11 8.9-20 19.9-20s20 8.9 20 19.9v54.1c0 11-8.9 19.9-19.9 19.9z"/></symbol><symbol viewBox="0 0 512 512" id="whatsup" xmlns="http://www.w3.org/2000/svg"><defs><style>.ucls-1{fill:#e1b544}</style></defs><g id="uСлой_2" data-name="Слой 2"><g id="uСлой_1-2" data-name="Слой 1"><path class="ucls-1" d="M235 0h41c.57 1.12 1.66.9 2.61 1a272.66 272.66 0 0132.53 5C412.89 27.32 495.07 115.36 509.2 218c.83 6 .67 12.17 2.8 18v40c-1.07.6-.91 1.68-1 2.64a279.45 279.45 0 01-5 32.56c-21 99.47-105.48 180.4-205.58 196.88-8.42 1.39-16.94 2.62-25.42 3.92h-38c-.67-1-1.72-.86-2.69-.95a252.69 252.69 0 01-106.71-33.6c-2.76-1.6-5.09-1.58-8-.68C88 486.58 56.33 496.25 24.7 506c-4.25 1.31-8.23 1.6-11.68-1.65-3.63-3.4-3.48-7.5-2.23-12 8.93-32.05 17.69-64.15 26.67-96.18a10.23 10.23 0 00-1.19-8.87 254.57 254.57 0 01-32.63-87.9C2.34 291.94 2.35 284.28 0 277v-42c1.32-.7.94-2 1.06-3.1 1-8.59 2.2-17.15 3.81-25.65C24.22 104.1 109.22 20.93 211.63 3.81 219.42 2.51 227.4 2.38 235 0zM34.24 481.44c2.26.94 3.75-.18 5.25-.64 26.26-8 52.55-16 78.71-24.3 5.92-1.89 10.59-1.23 16 1.85 73.9 42.31 149.94 46.14 226.56 9.08C446.7 425.86 500.3 334 491.2 234.65c-4.47-48.71-22.18-92.11-53.6-129.47C373 28.28 272.81.76 177.64 33.08 89.26 63.1 24.39 149.37 20 242.51c-2.36 50.58 9.44 97.43 36.58 140.27a14 14 0 011.6 12.31c-4.7 16.31-9.2 32.68-13.74 49-3.44 12.47-6.79 24.91-10.2 37.35z"/><path class="ucls-1" d="M328.81 411c-45.35-.41-86-15-122.35-41.58-49.06-35.76-84.33-82.4-107-138.58-10.72-26.58-9.77-53.37.32-80a153.15 153.15 0 0128.74-47.08A16.53 16.53 0 01139.23 98c8.42-1.15 16.78-2.65 25.33-1.08 5.17 1 9.4 3.13 12.29 7.69a382.48 382.48 0 0132.22 62c4.06 10.08 2.83 19.54-2.09 28.83-4.32 8.18-10.2 15.22-16.66 21.74-2.52 2.54-2.81 4.84-1.66 8 3.63 10.06 9.71 18.6 16.66 26.5 23.48 26.67 51.32 47.9 82.38 65 8.31 4.57 9.09 4.29 15.92-2.31 9.74-9.43 18-20.07 25.75-31.16 6.24-9 14.26-11.66 24.77-8.33a44.47 44.47 0 0110.29 5c19.44 12.26 38.43 25.24 58.59 36.34a9.23 9.23 0 015.06 10c-7.21 47.42-33 75.64-74.89 82.76a132.73 132.73 0 01-24.38 2.02zm-.14-20c3 0 6 .08 9 0 36.88-1.17 60.86-21 69-57 .57-2.53.54-4.31-2.1-5.8-16.69-9.42-32.47-20.29-48.66-30.5-8.67-5.46-8.69-5.4-14.78 3-2.25 3.1-4.54 6.18-6.92 9.17-6.76 8.49-14 16.51-22.65 23.16s-17.59 8.29-27.87 3.25a265.88 265.88 0 01-35.3-20.66c-25.1-17.55-48.57-36.89-66.52-62.08-7.11-10-12.72-20.65-14.23-33.14-.6-5.06.62-9 4.31-12.59a117.72 117.72 0 0015.6-18.18c4.35-6.37 5.46-12.64 2-20.1C182 153.4 173.61 137.69 165 122.1c-2.75-5-6-6.49-11.52-6.17-7.27.42-12.76 2.54-17 9-5.92 9.09-11.89 18.08-16.13 28.1-10.31 24.38-11.94 49-1.32 73.71 19.37 45.16 47.16 84.26 84.7 115.96 36 30.45 77.27 47.95 124.94 48.3z"/></g></g></symbol></svg>