<?xml version="1.0" encoding="utf-8"?>
<!-- Generator: Adobe Illustrator 23.0.2, SVG Export Plug-In . SVG Version: 6.00 Build 0)  -->
<svg version="1.1" id="Capa_1" xmlns="http://www.w3.org/2000/svg" xmlns:xlink="http://www.w3.org/1999/xlink" x="0px" y="0px"
	 viewBox="0 0 463.8 463.8" style="enable-background:new 0 0 463.8 463.8;" xml:space="preserve">
<g>
	<g>
		<path style="fill:#ffffff;" d="M383.6,296l-5.9-5.5c-0.1-0.1-0.1-0.3-0.1-0.4l-24.5-57.3c-5.1-12-16.8-19.8-29.8-19.9H145.1c-13,0.1-24.7,7.9-29.8,19.9
			l-24.2,56.5l-9,7.7c-9.6,8.2-15.1,20.2-15.1,32.8v97.4c0,17.5,14.2,31.8,31.8,31.8h0.1h18.3c17.5,0.1,31.8-14.1,31.8-31.6v-0.1
			v-11.4h166v11.2c0,17.5,14.2,31.7,31.7,31.8h0.1h18.3c17.5,0.1,31.8-14.1,31.9-31.7v-0.1v-99.9C397,315.4,392.1,304.2,383.6,296z
			 M133.7,240.6c1.9-4.6,6.4-7.6,11.4-7.7h178.1c5,0.1,9.5,3.1,11.4,7.7l18.5,43.3h-8.4c-5.5-27.4-32.2-45.1-59.6-39.6
			c-20,4-35.6,19.6-39.6,39.6H115.2L133.7,240.6z M324.2,283.9h-57.8c5.5-16,22.9-24.4,38.9-18.9C314.1,268.1,321.1,275,324.2,283.9
			z M129,427.1c0,6.5-5.2,11.7-11.6,11.8c-0.1,0-0.1,0-0.2,0H98.9c-6.5,0.1-11.8-5.1-11.9-11.6v-0.1V414c3.8,1.4,7.8,2,11.9,1.9H129
			V427.1z M377,427.2c0,6.5-5.3,11.8-11.8,11.8c0-0.1,0-0.1-0.1-0.1h-18.3c-6.5,0.1-11.8-5.1-11.8-11.6c0-0.1,0-0.1,0-0.2v-11.2
			h30.1c4,0.1,8.1-0.5,11.9-1.9L377,427.2L377,427.2z M377.1,384.4H377c0,6.4-5.2,11.6-11.6,11.5c-0.1,0-0.2,0-0.3,0H98.9
			c-6.4,0.2-11.7-4.9-11.9-11.2c0-0.1,0-0.2,0-0.3v-54.6c0-6.7,2.9-13.2,8.1-17.5l9.7-8.3H363l6.9,6.6c4.6,4.4,7.2,10.4,7.2,16.7
			V384.4z"/>
	</g>
</g>
<g>
	<g>
		<path style="fill:#ffffff;" d="M161,325.9h-52c-5.5,0-10,4.5-10,10v36c0,5.5,4.5,10,10,10h52c5.5,0,10-4.5,10-10v-36C171,330.4,166.5,325.9,161,325.9z
			 M151,361.9h-32v-16h32V361.9z"/>
	</g>
</g>
<g>
	<g>
		<path style="fill:#ffffff;" d="M355,325.9h-52c-5.5,0-10,4.5-10,10v36c0,5.5,4.5,10,10,10h52c5.5,0,10-4.5,10-10v-36C365,330.4,360.5,325.9,355,325.9z
			 M345,361.9h-32v-16h32V361.9z"/>
	</g>
</g>
<g>
	<g>
		<path style="fill:#ffffff;" d="M265.5,359.9h-66.9c-5.5,0-10,4.5-10,10s4.5,10,10,10h66.9c5.5,0,10-4.5,10-10S271,359.9,265.5,359.9z"/>
	</g>
</g>
<g>
	<g>
		<path style="fill:#ffffff;" d="M265.5,332.9h-66.9c-5.5,0-10,4.5-10,10s4.5,10,10,10h66.9c5.5,0,10-4.5,10-10S271,332.9,265.5,332.9z"/>
	</g>
</g>
<g>
	<g>
		<path style="fill:#ffffff;" d="M453.8,4.9H10.2C4.7,4.8,0.1,9.2,0,14.7v434.4c0.1,5.5,4.7,9.9,10.2,9.8h31.3c5.5,0,10.4-4.3,10.4-9.8V139.9h360v309.2
			c0,5.5,4.9,9.8,10.4,9.8h31.3c5.5,0.1,10.1-4.3,10.2-9.8V14.7C463.9,9.2,459.3,4.8,453.8,4.9z M32,438.9H20v-414h12V438.9z
			 M412,119.9H52v-95h360V119.9z M444,438.9h-12v-414h12V438.9z"/>
	</g>
</g>
</svg>
