<?xml version="1.0" encoding="utf-8"?>
<!-- Generator: Adobe Illustrator 23.0.2, SVG Export Plug-In . SVG Version: 6.00 Build 0)  -->
<svg version="1.1" id="Capa_1" xmlns="http://www.w3.org/2000/svg" xmlns:xlink="http://www.w3.org/1999/xlink" x="0px" y="0px"
	 viewBox="0 0 435.9 435.9" style="enable-background:new 0 0 435.9 435.9;" xml:space="preserve">
<g>
	<g>
		<path style="fill:#ffffff;" d="M430.9,120.8L222.8,5.2c-3-1.7-6.7-1.7-9.7,0L5.1,120.8c-3.2,1.8-5.1,5.1-5.1,8.7v292.7c-0.1,5.4,4.2,9.8,9.6,9.8
			c0.1,0,0.2,0,0.2,0h416.3c5.4,0.1,9.8-4.2,9.8-9.6c0-0.1,0-0.2,0-0.2V129.6C436,125.9,434.1,122.6,430.9,120.8z M358,412.1H78v-41
			h280V412.1z M358,351.1H78v-38h280V351.1z M358,293.1H78v-38h280V293.1z M358,235.1H78v-38h280V235.1z M416,412.1h-38V187.4
			c0-5.5-4.1-10.3-9.7-10.3H67.7c-5.5,0-9.7,4.8-9.7,10.3v224.7H20V135.4L218,25.3l198,110.1V412.1z"/>
	</g>
</g>
</svg>
