<?xml version="1.0" encoding="utf-8"?>
<!-- Generator: Adobe Illustrator 23.0.2, SVG Export Plug-In . SVG Version: 6.00 Build 0)  -->
<svg version="1.1" id="Capa_1" xmlns="http://www.w3.org/2000/svg" xmlns:xlink="http://www.w3.org/1999/xlink" x="0px" y="0px"
	 viewBox="0 0 440 440" style="enable-background:new 0 0 440 440;" xml:space="preserve">
<g>
	<g>
		<path style="fill:#ffffff;" d="M433,430V265.9c0-16.5-13.3-29.9-29.8-29.9c0,0-0.1,0-0.1,0H313v-10.3c4.2,3.4,10.3,2.9,13.9-1.2l25.4-29
			c3.6-4.1,3.3-10.3-0.8-14c-0.1-0.1-0.2-0.1-0.2-0.2L230,77.6V62h53.2c5.5,0,10-4.5,10-10c0-2.2-0.7-4.3-2-6L279.7,31L291.1,16
			c3.3-4.4,2.5-10.6-1.9-14c-1.7-1.3-3.9-2-6.1-2h-63c-5.5,0-10.1,4.4-10.2,10v65.8L86.7,181.4c-4.2,3.6-4.6,9.9-1,14.1l24.9,29
			c1.8,2.2,4.5,3.5,7.3,3.5c2.2,0,5-0.7,6-2.2V236H36.9C20.4,236,7,249.3,7,265.8c0,0,0,0.1,0,0.1V430c-0.1,5.4,4.3,9.9,9.7,10
			c0,0,0.1,0,0.1,0h406.3c5.4,0,9.9-4.4,9.9-9.9C433,430.1,433,430.1,433,430z M230,20h33l-3.8,4.9c-2.7,3.6-2.7,8.5,0,12.1L263,42
			h-33V20z M124,420H27V265.9c-0.1-5.4,4.3-9.8,9.7-9.9c0.1,0,0.1,0,0.2,0H124V420z M119.3,203.9l-11.9-13.8l111.7-95.6L330.7,190
			l-12.2,13.9l-92.9-79.5c-3.7-3.2-9.2-3.2-13,0L119.3,203.9z M243,420h-48v-71h48V420z M293,420h-30v-81.3c0.2-5.2-3.8-9.5-9-9.7
			c-0.2,0-0.4,0-0.5,0h-68.8c-5.2-0.1-9.6,4-9.7,9.3c0,0.1,0,0.3,0,0.4V420h-31V208.7l74.7-63.6l74.3,63.5V420z M413,265.9V420H313
			V256h90.1c5.4,0,9.8,4.3,9.9,9.7C413,265.8,413,265.8,413,265.9z"/>
	</g>
</g>
<g>
	<g>
		  <path style="fill:#ffffff;" d="M253.5,268h-69.2c-5.5,0-10,4.5-10,10s4.5,10,10,10h69.2c5.5,0,10-4.5,10-10S259,268,253.5,268z"/>
	</g>
</g>
<g>
	<g>
		 <path style="fill:#ffffff;" d="M55,283.9c-5.5,0-10,4.5-10,10V311c0,5.5,4.5,10,10,10s10-4.5,10-10v-17.2C65,288.3,60.5,283.9,55,283.9z"/>
	</g>
</g>
<g>
	<g>
		 <path style="fill:#ffffff;" d="M96,283.9c-5.5,0-10,4.5-10,10V311c0,5.5,4.5,10,10,10s10-4.5,10-10v-17.2C106,288.3,101.5,283.9,96,283.9z"/>
	</g>
</g>
<g>
	<g>
		 <path style="fill:#ffffff;" d="M55,350.8c-5.5,0-10,4.5-10,10V378c0,5.5,4.5,10,10,10s10-4.5,10-10v-17.2C65,355.3,60.5,350.8,55,350.8z"/>
	</g>
</g>
<g>
	<g>
		 <path style="fill:#ffffff;" d="M96,350.8c-5.5,0-10,4.5-10,10V378c0,5.5,4.5,10,10,10s10-4.5,10-10v-17.2C106,355.3,101.5,350.8,96,350.8z"/>
	</g>
</g>
<g>
	<g>
		 <path style="fill:#ffffff;" d="M344,283.9c-5.5,0-10,4.5-10,10V311c0,5.5,4.5,10,10,10s10-4.5,10-10v-17.2C354,288.3,349.5,283.9,344,283.9z"/>
	</g>
</g>
<g>
	<g>
		 <path style="fill:#ffffff;" d="M384,283.9c-5.5,0-10,4.5-10,10V311c0,5.5,4.5,10,10,10s10-4.5,10-10v-17.2C394,288.3,389.5,283.9,384,283.9z"/>
	</g>
</g>
<g>
	<g>
		 <path style="fill:#ffffff;" d="M344,350.8c-5.5,0-10,4.5-10,10V378c0,5.5,4.5,10,10,10s10-4.5,10-10v-17.2C354,355.3,349.5,350.8,344,350.8z"/>
	</g>
</g>
<g>
	<g>
		 <path style="fill:#ffffff;" d="M384,350.8c-5.5,0-10,4.5-10,10V378c0,5.5,4.5,10,10,10s10-4.5,10-10v-17.2C394,355.3,389.5,350.8,384,350.8z"/>
	</g>
</g>
</svg>
