<svg xmlns="http://www.w3.org/2000/svg" viewBox="0 0 256 162.02"><title>eye</title><g id="Слой_2" data-name="Слой 2"><g id="Слой_1-2" data-name="Слой 1"><path d="M0,84V79c4.74-7,9.05-14.4,14.29-21C40.75,24.47,74.85,4.09,117.73.46c35.74-3,67.14,8.85,95.08,30.75C230.19,44.83,243.83,61.74,256,80v4c-13.92,21-30.6,39.46-51.78,53.4-37.58,24.73-77.73,32.19-120.67,16.21C50,141.11,24,119,4.12,89.38,2.86,87.5,1.38,85.77,0,84Zm70.46-2A89.39,89.39,0,0,0,71.53,91c8.74,41.58,61.53,58.48,94.87,30.4,25-21.06,25.8-57.73,1.7-79.44-20.3-18.31-51.49-20.41-73.92-4.76C79,47.81,70.91,62.42,70.46,81.93Z"/><path d="M128.3,54.1c15.62,0,28.54,12.28,28.44,26.93s-13,26.86-28.57,26.83c-16,0-28.83-12.26-28.64-27.21C99.71,65.9,112.55,54.05,128.3,54.1Z"/></g></g></svg>