<svg xmlns="http://www.w3.org/2000/svg" viewBox="0 0 409.6 409.6"><title>inst</title><g id="Слой_2" data-name="Слой 2"><g id="Слой_1-2" data-name="Слой 1"><path d="M298.73,0H110.87A111,111,0,0,0,0,110.88V298.73A111,111,0,0,0,110.87,409.6H298.73A111,111,0,0,0,409.6,298.73V110.88A111,111,0,0,0,298.73,0Zm86.86,298.73a87,87,0,0,1-86.86,86.86H110.87A87,87,0,0,1,24,298.73V110.88A87,87,0,0,1,110.87,24H298.73a87,87,0,0,1,86.86,86.87Z"/><path d="M204.8,92.8a112,112,0,1,0,112,112,112.12,112.12,0,0,0-112-112Zm0,200a88,88,0,1,1,88-88,88.08,88.08,0,0,1-88,88Z"/><path d="M319.48,53a33.1,33.1,0,1,0,33.09,33.09A33.14,33.14,0,0,0,319.48,53Zm0,42.17a9.08,9.08,0,1,1,9.08-9.08,9.09,9.09,0,0,1-9.08,9.08Z"/></g></g></svg>