<svg xmlns="http://www.w3.org/2000/svg" viewBox="0 0 371.82 409.42"><defs><style>.cls-1{fill:#e1b442;}</style></defs><title>like</title><g id="Слой_2" data-name="Слой 2"><g id="Слой_1-2" data-name="Слой 1"><path class="cls-1" d="M115.08,0h28c.4.27.77.72,1.19.77,24.48,3.2,48.48,25.58,47.81,58.8-.42,21,0,42-.18,63-.05,4.34,1,5.57,5.48,5.55,43.49-.18,87-.13,130.47-.1,24.83,0,43.26,18.45,43.2,43.31,0,8.64,1.82,7.8-8,7.8-42.49,0-85,.08-127.47-.12-4.62,0-5.73,1.48-5.42,5.71.34,4.47.1,9,.08,13.49,0,6.68,0,6.65,6.78,6.65,42.82,0,85.65.08,128.47-.11,4.71,0,5.78,1.42,5.68,5.87-.27,13.66-.2,27.32,0,41,0,3.4-.78,4.62-4.41,4.57-13.66-.21-27.32-.1-41-.1-30.16,0-60.32.06-90.48-.09-3.83,0-5.39.89-5.11,5a117.59,117.59,0,0,1,0,15.48c-.27,4.08.89,5.47,5.18,5.43,21.83-.21,43.66-.11,65.48-.11s43.66,0,65.49,0c2.55,0,4.86-.35,4.81,3.66-.19,14.66-.12,29.32,0,44,0,2.63-.94,3.5-3.5,3.45-5.83-.13-11.67,0-17.5,0-37.82,0-75.65.08-113.47-.1-4.79,0-7.12.84-6.49,6.21.48,4.11.08,8.32.1,12.49,0,6.8.06,6.81,6.67,6.81h121c14.67,0,15.34.83,12.7,15.64-3.86,21.67-20.9,35.53-44,35.54q-140.71.06-281.43,0C17.46,409.39,0,391.65,0,364c.06-39,0-78,0-117,0-22.65.15-45.31.24-68a143.29,143.29,0,0,0,17.43-1c53-6.27,96.56-54.27,97.33-107.7C115.36,47,115.08,23.48,115.08,0Z"/></g></g></svg>