<svg xmlns="http://www.w3.org/2000/svg" viewBox="0 0 200 180"><defs><style>.cls-1{fill:#e2b647;}</style></defs><title>telegram</title><g id="Слой_2" data-name="Слой 2"><g id="Слой_1-2" data-name="Слой 1"><path class="cls-1" d="M70,180H66c-1.72-2.13-2.35-4.69-3-7.28-4.35-18.43-8.81-36.84-13-55.3a9.91,9.91,0,0,0-5.39-7.09C29.68,102,14.86,93.47,0,85V81c2.05-1.06,4-2.27,6.17-3.15Q96.86,40.44,187.57,3.06c1.9-.79,4.24-1,5.43-3.06,7,0,7,0,7,7-1.52,1.53-1.46,3.64-1.92,5.52q-18.69,76.53-37.3,153.08c-1.76,7.23-3.34,7.9-10,4.2q-22-12.27-43.95-24.64c-2.41-1.37-4.11-2-6.35.6C90.46,157.28,80.19,168.6,70,180ZM155.17,40.17l.43-1-1.18.27-1,.8a12.79,12.79,0,0,0-1.31.72Q105.83,74.58,59.5,108.18c-2.5,1.81-2.72,3.63-2,6.39,3,12.28,5.85,24.61,8.86,36.9.34,1.38,0,3.32,2.24,4.32,2.22-9.51,4.45-18.71,6.48-28a18,18,0,0,1,4.84-9q21.12-21.64,42-43.55c10.82-11.31,21.56-22.7,32.34-34Zm33.15-21.71c-1.67,1.39-2.48,1.94-3.14,2.63Q137,71.15,88.79,121.17c-2.61,2.71-1.84,3.74,1,5.31,19.36,10.73,38.66,21.6,58,32.41,5.61,3.14,5.61,3.13,7.15-3.2L180.05,52.37C182.71,41.44,185.38,30.51,188.32,18.46Zm-26.25,3.87L13.26,83.58C25.08,90.2,36,96.17,46.72,102.44c3.07,1.79,5.15,1.53,8-.54Q106.27,64.18,158,26.67C159.3,25.71,160.94,25.07,162.07,22.33ZM76.1,159l1.06.78q5.59-6.22,11.19-12.45c8.06-9,8-9-2.89-14.12-2.14-1-3.12-1-3.7,1.63C80,142.87,78,150.9,76.1,159Z"/></g></g></svg>