<svg xmlns="http://www.w3.org/2000/svg" viewBox="0 0 468 512"><defs><style>.cls-1{fill:#e2b544;}</style></defs><title>viber</title><g id="Слой_2" data-name="Слой 2"><g id="Слой_1-2" data-name="Слой 1"><path class="cls-1" d="M468,168V290c-1.83,3.64-1.55,7.68-2.14,11.54-13.4,88-89.95,155.13-179,156.48-30.47.46-61,.19-91.45.07a13.29,13.29,0,0,0-9.74,3.83C167.19,478.71,148.57,495.33,130,512h-7c-4.88-3.52-6.26-8.24-6.12-14.21.34-16,0-32,.19-48,0-3.26-.85-4.87-4-6.29Q24.71,403.93,3.57,309.35c-1.37-6.1-1-12.5-3.57-18.35V169c2.09-5.13,1.89-10.68,2.81-16C15.32,80.63,71.63,21.24,143.25,4.79,151.46,2.9,160,2.6,168,0H299c5.12,2.08,10.66,1.9,16,2.82C391,15.93,452,77,465.19,153.07,466.05,158.05,465.73,163.28,468,168ZM136.56,480c2.63-2.27,4-3.42,5.35-4.63,11.73-10.62,23.54-21.16,35.13-31.94a16.37,16.37,0,0,1,12.11-4.64c30.32.14,60.65.1,91,.06a178.88,178.88,0,0,0,37.7-3.85c74.25-16.07,128.48-81,130.32-156.84.77-31.64.28-63.31.2-95-.06-23.66-4.82-46.47-15.4-67.61-29.72-59.37-77.72-92.36-144.28-95.5-35.91-1.69-72-.48-108-.29A146.14,146.14,0,0,0,115.58,35C56.39,64.63,23.69,112.46,20,178.78c-1.45,26.09-.42,52.31-.4,78.47,0,10.32-.53,20.76.71,31,8,65.3,42,111.63,102.33,138.16,13,5.72,14.17,4.82,14,21.23C136.45,457.88,136.56,468.16,136.56,480Z"/><path class="cls-1" d="M91.86,161.85c-.17-14.51,5.07-26.67,16-36.29Q122,113,136.48,100.64c5.37-4.58,10.72-4.19,15.32,1.08,15.35,17.56,30.75,35.09,45.89,52.85,11.16,13.09,9.67,30.56-3.17,42-6.71,6-6.6,5.93-3.29,14.35,12,30.48,33.76,50.06,65.08,59.32,2.59.77,3.78.32,5.27-1.81,11.43-16.26,27.09-19.26,43.71-8.48Q333,277.87,360.6,295.87c7.56,4.93,8.56,9.57,3.7,17.1-6.42,9.94-12.81,19.89-19.33,29.76-15.17,23-42.66,29.28-66.66,16-31.84-17.58-63.05-36.09-91.44-58.94C150.54,270.55,122.81,234,99.33,194.16,93.65,184.5,91.94,173.18,91.86,161.85ZM303.28,346c9.79.08,18.43-4,24-12.05,5.22-7.52,10-15.35,15.08-23,1.28-1.92,1.27-2.95-.83-4.3-16.39-10.53-32.66-21.25-49.07-31.74-5.33-3.42-10.18-2.21-13.87,3-2,2.85-3.81,5.86-5.74,8.78-3.77,5.66-7.25,7-13.57,5-3.65-1.15-7.23-2.53-10.89-3.65-43-13.19-68.12-43.34-80.75-85.32-1.36-4.51-.43-8.21,3-11.29,3.6-3.22,7.34-6.28,10.9-9.54,5.07-4.65,5.54-9.77,1.1-14.93-12.38-14.4-24.93-28.65-37.31-43-1.92-2.24-3.19-2.63-5.54-.48-6.27,5.73-12.77,11.21-19.2,16.76a25.89,25.89,0,0,0-9.31,19.22c-.34,9.3,1.11,18.63,5.83,26.53,20.58,34.49,44.41,66.54,75.08,92.83,29.86,25.61,63.59,45.49,98.09,64.09A26.26,26.26,0,0,0,303.28,346Z"/><path class="cls-1" d="M249.62,73.71c1,.27,2.83.65,4.56,1.22q98.47,32.63,130.27,131.38c2.28,7.06-.16,12.34-6.08,14.13-5.58,1.68-10.32-1.49-12.48-8.34-.15-.47-.32-.94-.47-1.42-13.36-42.6-39.17-75.54-77-99.14a166.58,166.58,0,0,0-41.38-18.39c-4.33-1.28-7.53-3.52-8.33-8.23C237.67,78.63,242.46,73.34,249.62,73.71Z"/><path class="cls-1" d="M340.09,206c0,5.52-2.8,9.2-7.36,10.29s-8.18-.6-10.64-4.53a19,19,0,0,1-1.63-4.16c-11.45-34.45-34.33-57.49-68.84-68.86-4-1.32-7.42-3.11-8.54-7.51-2-7.79,4.84-13.89,13-11.54a119.68,119.68,0,0,1,48.62,27.6A121.39,121.39,0,0,1,339.11,202C339.59,203.54,339.9,205.17,340.09,206Z"/><path class="cls-1" d="M300.11,204.21c0,5.3-3.07,9.13-7.77,10.06a9.42,9.42,0,0,1-11-6.37,54.78,54.78,0,0,0-6.1-13.06,44.19,44.19,0,0,0-24.08-17.64c-3.83-1.19-6.31-3.68-7-7.63a9.2,9.2,0,0,1,3.42-9.35,8.9,8.9,0,0,1,8.44-1.89c22.15,6.81,36.74,21.32,43.8,43.38A13.47,13.47,0,0,1,300.11,204.21Z"/></g></g></svg>