<?xml version="1.0" encoding="utf-8"?>
<!-- Generator: Adobe Illustrator 23.0.2, SVG Export Plug-In . SVG Version: 6.00 Build 0)  -->
<svg version="1.1" id="Capa_1" xmlns="http://www.w3.org/2000/svg" xmlns:xlink="http://www.w3.org/1999/xlink" x="0px" y="0px"
	 viewBox="0 0 512 512" style="enable-background:new 0 0 512 512;" xml:space="preserve">
<style type="text/css">
	.st0{fill:#293C7D;}
	.st1{fill:#4899D2;}
</style>
<path class="st0" d="M492,133.1H78.2c-21.1,0-38.2-17.1-38.2-38.2s17.1-38.2,38.2-38.2H492c11,0,20-8.9,20-20s-8.9-20-20-20l0,0
	H78.2C35,16.6,0,51.7,0,94.9l0,0v299.5c0.1,55.8,45.2,100.9,101,101h310c55.8-0.1,100.9-45.2,101-101V153
	C512,142,503.1,133.1,492,133.1z M411,455.4H101.2C67.4,455.4,40,428,40,394.2V162.9c11.7,6.6,24.8,10,38.2,10h393.8v221.8
	C471.8,428.4,444.5,455.4,411,455.4z"/>
<path class="st1" d="M375.7,359.1c-11,0-20-8.9-20-20v-53.9c0-11,8.9-20,19.9-20s20,8.9,20,19.9c0,0,0,0,0,0v54.1
	C395.6,350.2,386.7,359.1,375.7,359.1z"/>
</svg>
