<svg xmlns="http://www.w3.org/2000/svg" viewBox="0 0 512 512"><defs><style>.cls-1{fill:#e1b544;}</style></defs><title>whatsup</title><g id="Слой_2" data-name="Слой 2"><g id="Слой_1-2" data-name="Слой 1"><path class="cls-1" d="M235,0h41c.57,1.12,1.66.9,2.61,1a272.66,272.66,0,0,1,32.53,5C412.89,27.32,495.07,115.36,509.2,218c.83,6,.67,12.17,2.8,18v40c-1.07.6-.91,1.68-1,2.64a279.45,279.45,0,0,1-5,32.56c-21,99.47-105.48,180.4-205.58,196.88C292,509.47,283.48,510.7,275,512H237c-.67-1-1.72-.86-2.69-.95a252.69,252.69,0,0,1-106.71-33.6c-2.76-1.6-5.09-1.58-8-.68C88,486.58,56.33,496.25,24.7,506c-4.25,1.31-8.23,1.6-11.68-1.65-3.63-3.4-3.48-7.5-2.23-12,8.93-32.05,17.69-64.15,26.67-96.18a10.23,10.23,0,0,0-1.19-8.87A254.57,254.57,0,0,1,3.64,299.4C2.34,291.94,2.35,284.28,0,277V235c1.32-.7.94-2,1.06-3.1,1-8.59,2.2-17.15,3.81-25.65C24.22,104.1,109.22,20.93,211.63,3.81,219.42,2.51,227.4,2.38,235,0ZM34.24,481.44c2.26.94,3.75-.18,5.25-.64,26.26-8,52.55-16,78.71-24.3,5.92-1.89,10.59-1.23,16,1.85,73.9,42.31,149.94,46.14,226.56,9.08C446.7,425.86,500.3,334,491.2,234.65c-4.47-48.71-22.18-92.11-53.6-129.47C373,28.28,272.81.76,177.64,33.08,89.26,63.1,24.39,149.37,20,242.51c-2.36,50.58,9.44,97.43,36.58,140.27a14,14,0,0,1,1.6,12.31c-4.7,16.31-9.2,32.68-13.74,49C41,456.56,37.65,469,34.24,481.44Z"/><path class="cls-1" d="M328.81,411c-45.35-.41-86-15-122.35-41.58-49.06-35.76-84.33-82.4-107-138.58-10.72-26.58-9.77-53.37.32-80a153.15,153.15,0,0,1,28.74-47.08A16.53,16.53,0,0,1,139.23,98c8.42-1.15,16.78-2.65,25.33-1.08,5.17,1,9.4,3.13,12.29,7.69a382.48,382.48,0,0,1,32.22,62c4.06,10.08,2.83,19.54-2.09,28.83-4.32,8.18-10.2,15.22-16.66,21.74-2.52,2.54-2.81,4.84-1.66,8,3.63,10.06,9.71,18.6,16.66,26.5,23.48,26.67,51.32,47.9,82.38,65,8.31,4.57,9.09,4.29,15.92-2.31,9.74-9.43,18-20.07,25.75-31.16,6.24-9,14.26-11.66,24.77-8.33a44.47,44.47,0,0,1,10.29,5c19.44,12.26,38.43,25.24,58.59,36.34a9.23,9.23,0,0,1,5.06,10c-7.21,47.42-33,75.64-74.89,82.76A132.73,132.73,0,0,1,328.81,411ZM328.67,391c3,0,6,.08,9,0,36.88-1.17,60.86-21,69-57,.57-2.53.54-4.31-2.1-5.8-16.69-9.42-32.47-20.29-48.66-30.5-8.67-5.46-8.69-5.4-14.78,3-2.25,3.1-4.54,6.18-6.92,9.17-6.76,8.49-14,16.51-22.65,23.16s-17.59,8.29-27.87,3.25a265.88,265.88,0,0,1-35.3-20.66c-25.1-17.55-48.57-36.89-66.52-62.08-7.11-10-12.72-20.65-14.23-33.14-.6-5.06.62-9,4.31-12.59a117.72,117.72,0,0,0,15.6-18.18c4.35-6.37,5.46-12.64,2-20.1C182,153.4,173.61,137.69,165,122.1c-2.75-5-6-6.49-11.52-6.17-7.27.42-12.76,2.54-17,9-5.92,9.09-11.89,18.08-16.13,28.1-10.31,24.38-11.94,49-1.32,73.71C138.4,271.9,166.19,311,203.73,342.7,239.73,373.15,281,390.65,328.67,391Z"/></g></g></svg>