<?xml version="1.0" encoding="utf-8"?>
<!-- Generator: Adobe Illustrator 23.0.2, SVG Export Plug-In . SVG Version: 6.00 Build 0)  -->
<svg version="1.1" id="Слой_1" xmlns="http://www.w3.org/2000/svg" xmlns:xlink="http://www.w3.org/1999/xlink" x="0px" y="0px"
	 viewBox="0 0 32 32" style="enable-background:new 0 0 32 32;" xml:space="preserve">
<style type="text/css">
	.st0{fill-rule:evenodd;clip-rule:evenodd;fill:#ffffff;}
</style>
<path id="Arrow_Forward" class="st0" d="M0.3,16.7l9.9,10c0.4,0.4,1,0.4,1.4,0c0.4-0.4,0.4-1,0-1.4L3.4,17H31c0.6,0,1-0.5,1-1
	s-0.4-1-1-1H3.4l8.2-8.3c0.4-0.4,0.4-1,0-1.4c-0.4-0.4-1-0.4-1.4,0l-9.9,10C0.1,15.5,0,15.7,0,16C0,16.3,0.1,16.5,0.3,16.7z"/>
</svg>
